<svg width="435" height="42" viewBox="0 0 435 42" fill="none" xmlns="http://www.w3.org/2000/svg">
<g clip-path="url(#clip0_3_20)">
<path d="M211.671 0.90462C184.674 -1.16101 132.084 2.85594 82.223 10.7914L70.4531 12.6672C37.3683 17.9486 19.496 21.6305 6.83867 25.7737C1.89863 27.391 1.4669 27.6067 1.51464 28.4338C1.58729 29.6405 2.37396 29.5481 11.4725 27.2648C20.8877 24.9019 29.2712 23.3681 52.2029 19.8134C128.846 7.93254 164.448 4.45933 203.961 5.01004C211.704 5.11739 223.939 6.69594 223.856 7.57667C223.745 8.75263 215.684 11.861 197.132 17.881C174.308 25.2866 160.362 30.3404 159.043 31.6823C156.787 33.9766 158.833 36.0631 163.653 36.3881C166.407 36.574 167.039 36.5442 179.835 35.6128C216.575 32.9428 239.971 32.1455 271.543 32.4885C319.622 33.0114 350.128 34.7052 407.277 40.0273C427.813 41.9399 428.879 41.9956 432.763 41.3514L432.832 41.3405C434.078 41.1387 434.42 39.5263 433.246 39.0194C430.225 37.7172 428.168 37.4249 410.364 35.7778C350.68 30.2549 319.169 28.4616 273.31 27.9825C249.192 27.73 238.422 27.8672 220.768 28.6525C208.699 29.1892 176.795 31.1316 172.306 31.6018C169.858 31.8593 180.747 27.9984 199.812 21.8502C223.93 14.0718 228.803 11.7616 229.187 7.92856C229.62 3.60644 225.525 1.96427 211.671 0.90462Z" fill="#93C5FD" fill-opacity="0.7"/>
</g>
<defs>
<clipPath id="clip0_3_20">
<rect width="433.81" height="41.75" fill="white" transform="translate(0.607574 -0.00592041)"/>
</clipPath>
</defs>
</svg>
