<svg width="159" height="43" viewBox="0 0 159 43" fill="none" xmlns="http://www.w3.org/2000/svg">
<path d="M55.8106 15.5521V13.0611H66.7676V15.5521H62.6916V29.4271H59.8576V15.5521H55.8106ZM73.9086 20.1291C73.4696 20.0511 73.0245 20.0123 72.5786 20.0131C70.7586 20.0131 69.6886 21.2011 69.6886 23.6051V29.3981H66.9986V17.9281H69.6296V19.5501H69.6876C70.2076 18.5651 71.3646 17.5501 72.8976 17.5501C73.3306 17.5501 73.6196 17.5801 73.9086 17.6091V20.1291ZM86.7746 29.3981H84.1726V27.9501H84.1146C83.3346 28.9351 82.0906 29.8331 80.1826 29.8331C77.6096 29.8331 74.6896 27.7761 74.6896 23.6631C74.6896 20.0131 77.2626 17.5801 80.3846 17.5801C82.2926 17.5801 83.4496 18.5931 84.1446 19.4911H84.2016V17.9271H86.8036V29.3981H86.7746ZM80.8766 27.4581C82.6396 27.4581 84.2876 25.9221 84.2876 23.7201C84.2876 21.4031 82.7846 19.8681 80.9056 19.8681C78.5356 19.8681 77.4066 21.7801 77.4066 23.6631C77.4066 25.5741 78.5066 27.4581 80.8766 27.4581ZM89.8976 17.9271H92.5576V19.3761H92.6146C93.5106 18.0721 94.8406 17.5511 96.1126 17.5511C98.4836 17.5511 100.566 19.1151 100.566 22.7941V29.3981H97.8756V22.9381C97.8756 20.9681 96.9516 19.9261 95.4186 19.9261C93.7416 19.9261 92.5856 21.1141 92.5856 23.3441V29.4271H89.8976V17.9271ZM108.69 20.8821C108.574 20.0421 107.938 19.4921 107.157 19.4921C106.232 19.4921 105.712 20.0711 105.712 20.7081C105.712 21.4031 106.059 21.8961 108.053 22.5621C110.511 23.3441 111.378 24.6191 111.378 26.2411C111.378 28.3551 109.788 29.8331 107.157 29.8331C104.411 29.8331 103.052 28.3261 102.849 26.1831H105.336C105.451 27.1391 106.03 27.8631 107.215 27.8631C108.227 27.8631 108.805 27.2261 108.805 26.4431C108.805 25.5751 108.314 25.0241 106.406 24.3871C104.266 23.6921 103.167 22.6201 103.167 20.8241C103.167 18.9411 104.642 17.5511 107.07 17.5511C109.528 17.5511 110.829 18.9991 111.118 20.8811L108.69 20.8821ZM113.72 12.6551H116.698V15.3781H113.72V12.6551ZM113.865 17.9271H116.553V29.4271H113.865V17.9271ZM124.851 20.8821C124.735 20.0421 124.099 19.4921 123.318 19.4921C122.393 19.4921 121.873 20.0711 121.873 20.7081C121.873 21.4031 122.22 21.8961 124.215 22.5621C126.672 23.3441 127.539 24.6191 127.539 26.2411C127.539 28.3551 125.949 29.8331 123.318 29.8331C120.572 29.8331 119.213 28.3261 119.011 26.1831H121.497C121.613 27.1391 122.191 27.8631 123.376 27.8631C124.388 27.8631 124.966 27.2261 124.966 26.4431C124.966 25.5751 124.475 25.0241 122.567 24.3871C120.427 23.6921 119.329 22.6201 119.329 20.8241C119.329 18.9411 120.803 17.5511 123.232 17.5511C125.689 17.5511 126.99 18.9991 127.279 20.8811L124.851 20.8821ZM128.696 17.9271H130.141V14.2491H132.83V17.9271H135.692V20.1871H132.801V25.3141C132.801 26.8781 133.293 27.3131 134.391 27.3131C134.854 27.3131 135.374 27.2261 135.779 27.1101V29.2821C135.172 29.4561 134.42 29.5431 133.755 29.5431C130.893 29.5431 130.141 27.8051 130.141 25.4591V20.1871H128.696V17.9271ZM143.007 17.5511C146.592 17.5511 149.136 20.1871 149.136 23.6631C149.136 27.0521 146.563 29.8331 143.007 29.8331C139.509 29.8331 136.878 27.1391 136.878 23.6631C136.878 20.1001 139.538 17.5511 143.007 17.5511ZM143.007 27.4281C145.031 27.4281 146.418 25.8061 146.418 23.6631C146.418 21.6351 145.117 19.9261 143.007 19.9261C140.954 19.9261 139.595 21.5191 139.595 23.6631C139.595 25.8641 141.157 27.4281 143.007 27.4281ZM157.059 20.0131C155.237 20.0131 154.168 21.2011 154.168 23.6051V29.3981H151.479V17.9281H154.11V19.5501H154.168C154.688 18.5651 155.844 17.5501 157.377 17.5501C157.81 17.5501 158.099 17.5801 158.389 17.6091V20.1291C157.95 20.0511 157.504 20.0123 157.059 20.0131ZM21.2036 35.1051C20.8353 35.1046 20.4822 34.9579 20.222 34.6973C19.9617 34.4366 19.8156 34.0834 19.8156 33.7151V8.74409C19.816 8.46983 19.8977 8.20185 20.0502 7.97392C20.2027 7.74599 20.4193 7.56831 20.6727 7.46329C20.926 7.35827 21.2048 7.33061 21.4739 7.38378C21.7429 7.43695 21.9902 7.56858 22.1846 7.76209C22.4446 8.02209 22.5906 8.37609 22.5906 8.74409V33.7141C22.5906 34.4671 21.9546 35.1051 21.2036 35.1051ZM15.4206 22.6211H8.77058C8.40245 22.6203 8.04966 22.4735 7.78964 22.2129C7.52961 21.9523 7.38357 21.5992 7.38358 21.2311C7.38358 20.4481 7.99058 19.8401 8.77158 19.8401H15.4216C15.7902 19.8401 16.1438 19.9865 16.4045 20.2472C16.6651 20.5079 16.8116 20.8614 16.8116 21.2301C16.8116 21.5987 16.6651 21.9523 16.4045 22.213C16.1438 22.4736 15.7902 22.6201 15.4216 22.6201L15.4206 22.6211ZM33.6636 22.6211H26.9856C26.6173 22.6206 26.2642 22.4739 26.004 22.2133C25.7437 21.9526 25.5976 21.5994 25.5976 21.2311C25.5976 20.4481 26.2046 19.8401 26.9856 19.8401H33.6356C34.0037 19.8409 34.3565 19.9877 34.6165 20.2483C34.8765 20.5089 35.0226 20.862 35.0226 21.2301C35.0226 22.0121 34.4156 22.6211 33.6636 22.6211Z" fill="#334155"/>
<path d="M21.2036 42.0861C9.72557 42.0861 0.387573 32.7301 0.387573 21.2301C0.387573 9.73009 9.72557 0.374084 21.2036 0.374084C32.6816 0.374084 42.0196 9.73009 42.0196 21.2301C42.0196 32.7301 32.6816 42.0861 21.2036 42.0861ZM21.2036 3.15508C11.2586 3.15508 3.16357 11.2651 3.16357 21.2301C3.16357 31.1951 11.2586 39.3051 21.2036 39.3051C31.1496 39.3051 39.2436 31.1951 39.2436 21.2301C39.2436 11.2651 31.1496 3.15508 21.2036 3.15508Z" fill="#334155"/>
</svg>
