<svg width="106" height="49" viewBox="0 0 106 49" fill="none" xmlns="http://www.w3.org/2000/svg">
<g clip-path="url(#clip0_3_44)">
<path fill-rule="evenodd" clip-rule="evenodd" d="M18.3876 4.37408L0.387573 10.3741V29.8741L6.38757 31.8741V37.3741L24.3876 43.3741V11.8741L18.3876 13.8741V4.37408ZM8.38757 32.5411L18.3876 35.8741V15.9821L22.3876 14.6491V40.5991L8.38757 35.9341V32.5411Z" fill="#334155"/>
<path d="M43.2876 20.8241V31.3741H47.7336V20.8241H51.2636V17.4321H39.7776V20.8251L43.2876 20.8241ZM53.4926 25.6221C53.4926 29.6001 55.7926 31.6281 59.8686 31.6281C63.7686 31.6281 66.2646 29.7751 66.2646 25.5831V17.4331H61.8176V25.4271C61.8176 27.2601 61.4276 28.1571 59.8676 28.1571C58.2876 28.1571 57.8976 27.2601 57.8976 25.4471V17.4321H53.4916L53.4926 25.6221Z" fill="#334155"/>
<path fill-rule="evenodd" clip-rule="evenodd" d="M69.3526 31.3741V17.4321H74.9106C78.9276 17.4321 80.6436 19.2261 80.6436 22.2091V22.2871C80.6436 25.1931 78.7136 26.8311 75.1056 26.8311H73.7596V31.3741H69.3526ZM74.6756 23.8671H73.7596V20.7271H74.6956C75.8456 20.7271 76.4506 21.1571 76.4506 22.2291V22.3071C76.4506 23.3401 75.8456 23.8671 74.6756 23.8671Z" fill="#334155"/>
<path d="M82.9506 31.3741V17.4321H87.3776V27.9621H92.4476V31.3741H82.9506ZM94.9496 17.4321V31.3741H105.168V27.9811H99.3566V25.8951H103.725V22.7951H99.3566V20.8251H104.856V17.4321H94.9496Z" fill="#334155"/>
</g>
<defs>
<clipPath id="clip0_3_44">
<rect width="105" height="48" fill="white" transform="translate(0.387573 0.374084)"/>
</clipPath>
</defs>
</svg>
