<svg width="128" height="30" viewBox="0 0 128 30" fill="none" xmlns="http://www.w3.org/2000/svg">
<path d="M3.69757 19.2771L18.4476 3.46108L15.1366 0.374084L0.387573 16.1901L3.69757 19.2771ZM6.17957 29.3741L20.9276 13.5581L17.6176 10.4711L2.86957 26.2871L6.17957 29.3741ZM37.4406 11.1581C37.0558 10.677 36.5618 10.2948 35.9996 10.0431C35.4056 9.76709 34.8336 9.62908 34.2816 9.62908C33.9976 9.62908 33.7096 9.65408 33.4176 9.70408C33.1383 9.74943 32.8702 9.84751 32.6276 9.99308C32.3936 10.1351 32.1976 10.3191 32.0376 10.5441C31.8796 10.7701 31.8006 11.0581 31.8006 11.4091C31.8006 11.7091 31.8626 11.9611 31.9886 12.1611C32.1136 12.3611 32.2976 12.5371 32.5396 12.6881C32.7816 12.8381 33.0696 12.9761 33.4046 13.1011C33.7386 13.2271 34.1146 13.3561 34.5326 13.4901C35.1346 13.6901 35.7616 13.9121 36.4126 14.1541C37.0494 14.3882 37.6489 14.7132 38.1926 15.1191C38.7302 15.5233 39.1819 16.0305 39.5216 16.6111C39.8716 17.2041 40.0476 17.9441 40.0476 18.8301C40.0476 19.8491 39.8596 20.7301 39.4836 21.4741C39.1257 22.1962 38.6071 22.8267 37.9676 23.3171C37.3149 23.8105 36.5749 24.1762 35.7866 24.3951C34.9631 24.6294 34.1108 24.7472 33.2546 24.7451C31.9846 24.7451 30.7556 24.5251 29.5696 24.0821C28.3826 23.6391 27.3966 23.0081 26.6106 22.1891L29.4186 19.3311C29.8536 19.8661 30.4256 20.3131 31.1356 20.6721C31.8456 21.0321 32.5526 21.2121 33.2546 21.2121C33.5716 21.2121 33.8806 21.1781 34.1816 21.1111C34.4826 21.0441 34.7456 20.9351 34.9716 20.7851C35.1966 20.6351 35.3766 20.4341 35.5106 20.1831C35.6446 19.9331 35.7106 19.6321 35.7106 19.2811C35.7106 18.9471 35.6276 18.6621 35.4606 18.4281C35.2667 18.1701 35.0237 17.9529 34.7456 17.7891C34.3818 17.5719 33.9951 17.3955 33.5926 17.2631C33.1326 17.1041 32.6106 16.9331 32.0256 16.7491C31.4574 16.5652 30.9007 16.3475 30.3586 16.0971C29.8263 15.8537 29.3356 15.528 28.9046 15.1321C28.4705 14.7283 28.121 14.2422 27.8766 13.7021C27.6176 13.1431 27.4886 12.4621 27.4886 11.6601C27.4886 10.6741 27.6886 9.83008 28.0896 9.12808C28.4796 8.43908 29.0196 7.84808 29.6696 7.39808C30.3397 6.93868 31.0869 6.60336 31.8756 6.40808C32.6856 6.20008 33.5206 6.09408 34.3576 6.09408C35.3596 6.09408 36.3836 6.27808 37.4276 6.64608C38.4726 7.01408 39.3876 7.55608 40.1736 8.27608L37.4406 11.1581ZM47.1176 14.8941V19.6571C47.1176 20.2421 47.2306 20.6801 47.4556 20.9731C47.6816 21.2651 48.0866 21.4121 48.6716 21.4121C48.8716 21.4121 49.0856 21.3951 49.3116 21.3621C49.5056 21.3371 49.6946 21.2871 49.8746 21.2121L49.9246 24.2191C49.6416 24.3191 49.2816 24.4071 48.8476 24.4831C48.4169 24.5577 47.9806 24.5952 47.5436 24.5951C46.7076 24.5951 46.0056 24.4911 45.4376 24.2821C44.8696 24.0731 44.4146 23.7721 44.0716 23.3801C43.7218 22.9741 43.4688 22.4941 43.3316 21.9761C43.175 21.383 43.0993 20.7715 43.1066 20.1581V14.8941H41.1006V11.8101H43.0806V8.52608H47.1176V11.8101H50.0506V14.8941H47.1176ZM59.3516 18.8541H58.8246C58.3736 18.8541 57.9186 18.8751 57.4586 18.9171C56.9986 18.9591 56.5886 19.0391 56.2306 19.1551C55.8985 19.2561 55.594 19.432 55.3406 19.6691C55.1066 19.8951 54.9896 20.1921 54.9896 20.5591C54.9896 20.7931 55.0436 20.9941 55.1526 21.1611C55.2606 21.3281 55.3986 21.4611 55.5656 21.5621C55.7326 21.6621 55.9256 21.7331 56.1426 21.7751C56.3491 21.816 56.559 21.8371 56.7696 21.8381C57.6046 21.8381 58.2436 21.6081 58.6866 21.1481C59.1296 20.6881 59.3516 20.0661 59.3516 19.2811V18.8541ZM51.8056 13.5141C52.5411 12.8122 53.417 12.2741 54.3756 11.9351C55.3358 11.5874 56.3493 11.4094 57.3706 11.4091C58.4236 11.4091 59.3136 11.5391 60.0406 11.7981C60.7676 12.0571 61.3566 12.4581 61.8076 13.0011C62.2596 13.5441 62.5896 14.2291 62.7976 15.0571C63.0076 15.8841 63.1116 16.8661 63.1116 18.0021V24.2951H59.3516V22.9661H59.2756C58.9586 23.4841 58.4776 23.8861 57.8346 24.1691C57.1746 24.4565 56.4614 24.6017 55.7416 24.5951C55.217 24.5924 54.6948 24.5252 54.1866 24.3951C53.6632 24.2662 53.1668 24.0455 52.7206 23.7431C52.2687 23.4322 51.8955 23.0203 51.6306 22.5401C51.3456 22.0381 51.2036 21.4201 51.2036 20.6851C51.2036 19.7821 51.4506 19.0551 51.9436 18.5041C52.4366 17.9521 53.0716 17.5261 53.8486 17.2251C54.6256 16.9251 55.4906 16.7241 56.4436 16.6241C57.3956 16.5241 58.3236 16.4731 59.2256 16.4731V16.2731C59.2256 15.6541 59.0086 15.1991 58.5746 14.9061C58.1396 14.6141 57.6046 14.4671 56.9696 14.4671C56.3848 14.4672 55.8071 14.5959 55.2776 14.8441C54.7699 15.0713 54.3004 15.3755 53.8856 15.7461L51.8056 13.5151V13.5141ZM70.4936 14.8941V19.6571C70.4936 20.2421 70.6056 20.6801 70.8316 20.9731C71.0566 21.2651 71.4616 21.4121 72.0476 21.4121C72.2476 21.4121 72.4606 21.3951 72.6866 21.3621C72.9126 21.3281 73.1006 21.2781 73.2506 21.2121L73.3006 24.2191C72.9489 24.336 72.5884 24.4243 72.2226 24.4831C71.7926 24.5581 71.3566 24.5951 70.9196 24.5951C70.0836 24.5951 69.3816 24.4911 68.8136 24.2821C68.2456 24.0731 67.7896 23.7721 67.4476 23.3801C67.0977 22.9742 66.8447 22.4941 66.7076 21.9761C66.5507 21.383 66.4747 20.7715 66.4816 20.1581V14.8941H64.4776V11.8101H66.4576V8.52608H70.4946V11.8101H73.4276V14.8941H70.4936ZM79.8186 7.82409C79.8186 8.14209 79.7556 8.43808 79.6306 8.71408C79.5106 8.98208 79.3406 9.22408 79.1296 9.42908C78.6766 9.84975 78.0808 10.0828 77.4626 10.0811C76.7936 10.0811 76.2336 9.85908 75.7826 9.41608C75.5656 9.21208 75.3934 8.96523 75.2769 8.69118C75.1603 8.41713 75.102 8.12186 75.1056 7.82409C75.1056 7.52409 75.1646 7.23508 75.2816 6.95908C75.3986 6.68408 75.5656 6.44508 75.7826 6.24508C75.9996 6.04508 76.2506 5.88108 76.5346 5.75608C76.8186 5.63108 77.1276 5.56808 77.4626 5.56808C78.0807 5.56689 78.6763 5.79985 79.1296 6.22008C79.3386 6.42008 79.5056 6.65908 79.6306 6.93408C79.7566 7.21008 79.8186 7.50709 79.8186 7.82409ZM75.4076 24.2941V11.8111H79.5186V24.2961H75.4076V24.2941ZM90.6806 15.8461C90.4267 15.5299 90.0996 15.2804 89.7276 15.1191C89.3431 14.9393 88.924 14.8454 88.4996 14.8441C88.0646 14.8441 87.6716 14.9311 87.3206 15.1071C86.9757 15.278 86.6689 15.5168 86.4186 15.8091C86.1686 16.1011 85.9716 16.4391 85.8286 16.8241C85.6856 17.2171 85.6136 17.6341 85.6166 18.0521C85.6166 18.4871 85.6836 18.8961 85.8166 19.2811C85.9445 19.655 86.145 19.9999 86.4066 20.2961C86.6646 20.5891 86.9746 20.8181 87.3336 20.9861C87.6936 21.1531 88.0986 21.2361 88.5496 21.2361C88.9676 21.2361 89.3806 21.1561 89.7896 20.9981C90.1996 20.8391 90.5296 20.6091 90.7796 20.3081L93.0616 23.0911C92.5436 23.5931 91.8756 23.9851 91.0566 24.2691C90.2166 24.5571 89.3366 24.7011 88.4486 24.6961C87.5105 24.7037 86.5781 24.5508 85.6916 24.2441C84.8698 23.9616 84.1146 23.5137 83.4726 22.9281C82.8387 22.3414 82.3349 21.6284 81.9936 20.8351C81.6336 20.0161 81.4546 19.0891 81.4546 18.0521C81.4546 17.0321 81.6346 16.1141 81.9946 15.2951C82.3356 14.5018 82.8391 13.7889 83.4726 13.2021C84.116 12.615 84.8705 12.1627 85.6916 11.8721C87.4221 11.2539 89.3133 11.2543 91.0436 11.8731C91.4536 12.0151 91.8296 12.1901 92.1716 12.3991C92.5146 12.6091 92.8116 12.8381 93.0616 13.0891L90.6806 15.8461ZM105.772 24.2951L99.1786 16.1221H99.1286V24.2951H94.9166V6.54408H99.1286V13.7641H99.2036L105.547 6.54408H110.911L103.265 14.7171L111.363 24.2941H105.772V24.2951ZM116.978 7.82508C116.978 8.14208 116.916 8.43808 116.79 8.71508C116.67 8.98308 116.5 9.22508 116.289 9.42908C115.835 9.84932 115.24 10.0823 114.622 10.0811C113.953 10.0811 113.393 9.85908 112.942 9.41608C112.725 9.212 112.553 8.96514 112.436 8.69111C112.32 8.41708 112.261 8.12184 112.265 7.82409C112.265 7.52409 112.324 7.23508 112.441 6.95908C112.558 6.68408 112.725 6.44508 112.942 6.24508C113.159 6.04508 113.41 5.88108 113.694 5.75608C113.978 5.63108 114.287 5.56808 114.622 5.56808C115.24 5.56689 115.835 5.79985 116.289 6.22008C116.498 6.42008 116.665 6.65908 116.79 6.93408C116.916 7.21008 116.978 7.50808 116.978 7.82508ZM112.566 24.2951V11.8101H116.677V24.2951H112.566ZM124.399 14.8941V19.6571C124.399 20.2421 124.511 20.6801 124.737 20.9731C124.963 21.2651 125.368 21.4121 125.953 21.4121C126.153 21.4121 126.367 21.3951 126.592 21.3621C126.786 21.3381 126.976 21.2871 127.156 21.2121L127.206 24.2191C126.854 24.336 126.493 24.4243 126.128 24.4831C125.698 24.5581 125.262 24.5951 124.825 24.5951C123.989 24.5951 123.287 24.4911 122.719 24.2821C122.151 24.0731 121.695 23.7721 121.353 23.3801C121.003 22.9742 120.75 22.4941 120.613 21.9761C120.456 21.3829 120.381 20.7714 120.388 20.1581V14.8941H118.382V11.8101H120.363V8.52608H124.399V11.8101H127.332V14.8941H124.399Z" fill="#334155"/>
</svg>
