<svg width="139" height="39" viewBox="0 0 139 39" fill="none" xmlns="http://www.w3.org/2000/svg">
<path fill-rule="evenodd" clip-rule="evenodd" d="M30.7036 0.374084C34.6876 0.374084 37.9166 3.63008 37.9166 7.64708C37.92 9.13976 37.464 10.5973 36.6104 11.8219C35.7569 13.0465 34.5472 13.9787 33.1456 14.4921L38.9596 24.9541H42.9396C43.5526 24.9541 44.0496 25.4541 44.0496 26.0721C44.0496 26.6901 43.5526 27.1901 42.9396 27.1901H1.49758C0.88558 27.1901 0.38858 26.6901 0.38858 26.0721C0.38858 25.4541 0.88558 24.9541 1.49858 24.9541H5.47858L15.8316 6.39208C15.9243 6.22508 16.0588 6.08494 16.2218 5.98533C16.3848 5.88572 16.5708 5.83003 16.7617 5.82369C16.9527 5.81734 17.142 5.86056 17.3113 5.94913C17.4805 6.0377 17.6239 6.1686 17.7276 6.32908L23.6756 15.5181L25.5256 12.7091C24.2167 11.3493 23.4871 9.53441 23.4906 7.64708C23.4906 3.63008 26.7196 0.374084 30.7036 0.374084ZM24.9946 17.5571L29.7826 24.9541H36.4166L28.9596 11.5361L24.9946 17.5571ZM27.1346 24.9541L16.8676 9.09408L8.02258 24.9541H27.1346ZM35.8366 7.64708C35.8395 8.76923 35.4775 9.8619 34.805 10.7602C34.1325 11.6585 33.1861 12.3138 32.1086 12.6271L30.0076 8.84608C29.9154 8.67946 29.7817 8.53946 29.6196 8.43964C29.4574 8.33983 29.2722 8.28357 29.0819 8.27633C28.8916 8.26909 28.7027 8.3111 28.5334 8.39831C28.3641 8.48551 28.2202 8.61495 28.1156 8.77408L26.7136 10.9041C25.9711 9.98115 25.5673 8.83162 25.5696 7.64708C25.5696 4.78808 27.8686 2.47108 30.7036 2.47108C33.5386 2.47108 35.8366 4.78808 35.8366 7.64708Z" fill="#334155"/>
<path d="M10.0076 30.5471C9.39657 30.5471 8.90057 31.0471 8.90057 31.6641C8.90057 32.2811 9.39657 32.7801 10.0076 32.7801H34.4276C35.0396 32.7801 35.5356 32.2801 35.5356 31.6641C35.5356 31.0471 35.0396 30.5471 34.4286 30.5471H10.0076ZM18.5206 36.1371C17.9076 36.1371 17.4106 36.6371 17.4106 37.2561C17.4106 37.8731 17.9076 38.3741 18.5206 38.3741H25.9166C26.5286 38.3741 27.0256 37.8741 27.0256 37.2561C27.0256 36.6381 26.5286 36.1361 25.9156 36.1361L18.5206 36.1371Z" fill="#334155"/>
<path fill-rule="evenodd" clip-rule="evenodd" d="M120.415 17.2451C119.433 15.9951 117.962 15.3221 116.068 15.3221C113.084 15.3221 110.019 17.8501 110.019 22.1081C110.019 26.3661 113.084 28.8941 116.068 28.8941C117.962 28.8941 119.433 28.2341 120.415 26.9711V28.0291C120.415 30.4741 118.943 31.9591 116.273 31.9591C114.679 31.9591 113.166 31.4351 111.845 30.6251L110.809 33.0571C112.185 34.0471 114.324 34.5821 116.273 34.5821C120.633 34.5821 123.276 32.0421 123.276 27.9051V15.6651H120.415V17.2451ZM112.948 22.1081C112.948 19.8831 114.392 18.0281 116.803 18.0281C119.106 18.0281 120.66 19.8011 120.66 22.1081C120.66 24.4161 119.106 26.1881 116.803 26.1881C114.392 26.1881 112.948 24.3211 112.948 22.1081ZM104.729 17.2591C103.83 16.0911 102.481 15.3221 100.628 15.3221C96.9776 15.3221 94.1016 18.2201 94.1016 22.2451C94.1016 26.2701 96.9766 29.1691 100.628 29.1691C102.482 29.1691 103.83 28.4141 104.729 27.2461V28.8261H107.577V15.6661H104.729V17.2591ZM97.0306 22.2451C97.0306 19.9381 98.5166 18.0281 100.969 18.0281C103.326 18.0281 104.907 19.8411 104.907 22.2451C104.907 24.6491 103.326 26.4631 100.969 26.4631C98.5166 26.4631 97.0306 24.5531 97.0306 22.2451ZM138.388 22.2321C138.375 18.1251 135.868 15.3221 132.216 15.3221C128.374 15.3221 125.717 18.1251 125.717 22.2461C125.717 26.4221 128.483 29.1701 132.393 29.1701C134.369 29.1701 136.167 28.6901 137.761 27.3161L136.344 25.2681C135.268 26.1331 133.878 26.6561 132.57 26.6561C130.717 26.6561 129.069 25.6661 128.687 23.3031H138.334C138.361 22.9741 138.388 22.6021 138.388 22.2321ZM128.701 21.1191C129.001 19.1961 130.131 17.8771 132.161 17.8771C133.974 17.8771 135.159 19.0721 135.472 21.1191H128.701Z" fill="#334155"/>
<path d="M64.7206 23.3311L59.1746 9.59308H54.4476V28.8261H57.5276V13.1511L63.0976 26.9441H66.3406L71.9136 13.0001V28.8261H74.9936V9.59308H70.2646L64.7206 23.3311ZM81.5916 28.8261V15.6661H78.7316V28.8261H81.5916ZM93.7736 15.6931C93.1196 15.4321 92.4516 15.3231 91.5796 15.3231C89.9856 15.3231 88.6496 15.8991 87.7916 17.1491V15.6641H84.9716V28.8241H87.8196V21.5841C87.8196 19.3461 89.1136 18.0541 90.9256 18.0541C91.6206 18.0541 92.4926 18.2191 93.0916 18.5341L93.7736 15.6931ZM82.1636 11.1181C82.1636 9.97808 81.2776 9.08508 80.1466 9.08508C79.0166 9.08508 78.1566 9.97808 78.1566 11.1181C78.1566 12.2581 79.0166 13.1241 80.1466 13.1241C81.2776 13.1241 82.1636 12.2581 82.1636 11.1181Z" fill="#334155"/>
</svg>
