<svg width="137" height="41" viewBox="0 0 137 41" fill="none" xmlns="http://www.w3.org/2000/svg">
<path fill-rule="evenodd" clip-rule="evenodd" d="M38.8426 9.39208C38.8466 9.40208 38.8526 9.41208 38.8546 9.42208C38.8688 9.4756 38.8762 9.5307 38.8766 9.58608V18.1721C38.8768 18.2819 38.8482 18.3899 38.7937 18.4851C38.7391 18.5804 38.6604 18.6597 38.5656 18.7151L31.4276 22.8651V31.0881C31.4277 31.198 31.399 31.306 31.3442 31.4013C31.2895 31.4966 31.2106 31.5759 31.1156 31.6311L16.2166 40.2911C16.1823 40.3097 16.1461 40.3244 16.1086 40.3351C16.0946 40.3411 16.0816 40.3491 16.0666 40.3531C15.9624 40.3811 15.8527 40.3811 15.7486 40.3531C15.739 40.3506 15.7296 40.3473 15.7206 40.3431L15.7006 40.3331C15.6656 40.3201 15.6306 40.3091 15.5976 40.2901L0.698574 31.6311C0.603791 31.5757 0.525195 31.4963 0.470626 31.4011C0.416056 31.3058 0.38742 31.1979 0.387574 31.0881V5.33008C0.387958 5.2751 0.39501 5.22036 0.408574 5.16708C0.414574 5.14808 0.424574 5.13208 0.430574 5.11408L0.450574 5.06108C0.456149 5.04594 0.462834 5.03123 0.470574 5.01708C0.482574 4.99708 0.499574 4.98008 0.513574 4.96108C0.531574 4.93608 0.546574 4.91108 0.568574 4.88808C0.586574 4.87008 0.608574 4.85808 0.628574 4.84108C0.651574 4.82308 0.672574 4.80308 0.697574 4.78808L8.14757 0.458078C8.24169 0.403267 8.34866 0.37439 8.45757 0.37439C8.56649 0.37439 8.67346 0.403267 8.76757 0.458078L16.2176 4.78808C16.2426 4.80308 16.2636 4.82308 16.2866 4.84108L16.3076 4.85708C16.3216 4.86708 16.3356 4.87708 16.3476 4.88808C16.3625 4.90378 16.3759 4.92086 16.3876 4.93908L16.4026 4.96108C16.4156 4.98108 16.4326 4.99608 16.4446 5.01708C16.4616 5.04708 16.4726 5.08108 16.4846 5.11408L16.4946 5.13608L16.5066 5.16608C16.5206 5.21961 16.5276 5.27474 16.5276 5.33008V21.4181L22.7356 17.8101V9.58608C22.7359 9.53102 22.7433 9.47624 22.7576 9.42308C22.7626 9.40408 22.7726 9.38808 22.7786 9.37008L22.7856 9.35008C22.798 9.29952 22.8243 9.25345 22.8616 9.21708C22.8796 9.19208 22.8956 9.16708 22.9166 9.14408C22.9266 9.13408 22.9366 9.12708 22.9466 9.11908C22.9566 9.11208 22.9676 9.10508 22.9766 9.09708L23.0126 9.06708C23.023 9.05857 23.034 9.05088 23.0456 9.04408L30.4956 4.71408C30.5897 4.65927 30.6967 4.63039 30.8056 4.63039C30.9145 4.63039 31.0215 4.65927 31.1156 4.71408L38.5656 9.04408C38.5916 9.05908 38.6116 9.08008 38.6346 9.09708L38.6566 9.11308C38.6696 9.12308 38.6836 9.13308 38.6946 9.14408C38.7096 9.16003 38.723 9.17745 38.7346 9.19608L38.7506 9.21708L38.7666 9.23708C38.7766 9.24908 38.7856 9.26008 38.7926 9.27308C38.8061 9.29875 38.8175 9.32551 38.8266 9.35308L38.8326 9.37008L38.8426 9.39208ZM9.70957 26.8271L15.9056 30.3671L29.5576 22.5001L23.3566 18.8951L9.70957 26.8271ZM30.1856 21.4181V14.2781L23.9776 10.6711V17.8111L30.1856 21.4181ZM37.0116 9.58808L30.8056 5.98008L24.6006 9.58708L30.8056 13.1931L37.0116 9.58808ZM9.07857 10.0221V25.7481L15.2866 22.1391V6.41408L9.07757 10.0221H9.07857ZM14.6626 5.33008L8.45757 1.72408L2.25157 5.33008L8.45757 8.93708L14.6626 5.33008ZM7.83657 10.0241L1.62857 6.41408V30.7241L15.2876 38.6641V31.4541L8.15257 27.3781H8.15057L8.14657 27.3741C8.12157 27.3591 8.10157 27.3391 8.07957 27.3211C8.05798 27.3088 8.03813 27.2937 8.02057 27.2761L8.01857 27.2741C8.00557 27.2611 7.99457 27.2451 7.98357 27.2301C7.97842 27.2226 7.97308 27.2153 7.96757 27.2081L7.93757 27.1701C7.93171 27.1628 7.92637 27.1551 7.92157 27.1471L7.92057 27.1451C7.91089 27.128 7.90317 27.1099 7.89757 27.0911L7.88757 27.0671L7.87257 27.0341C7.86683 27.0218 7.86215 27.0091 7.85857 26.9961C7.85316 26.9738 7.84981 26.951 7.84857 26.9281L7.84557 26.9031C7.84448 26.8944 7.84314 26.8857 7.84157 26.8771C7.83957 26.8631 7.83657 26.8481 7.83657 26.8331V10.0241ZM16.5276 31.4541V38.6641L30.1846 30.7271V23.5841L16.5276 31.4541ZM31.4276 21.4171L37.6356 17.8091V10.6691L31.4276 14.2791V21.4191V21.4171Z" fill="#334155"/>
<path d="M133.127 9.58807H136.388V30.7341H133.127V9.58807ZM48.7806 9.58807H52.2216V27.6241H58.6846V30.7341H48.7806V9.59007V9.58807Z" fill="#334155"/>
<path fill-rule="evenodd" clip-rule="evenodd" d="M68.9636 16.8991C69.7716 17.3021 70.3936 17.8551 70.8336 18.5591V16.6571H74.0946V30.7341H70.8336V28.8311C70.3946 29.5361 69.7716 30.0901 68.9636 30.4911C68.1556 30.8951 67.3436 31.0961 66.5236 31.0961C65.4666 31.0961 64.4996 30.9001 63.6216 30.5061C62.765 30.1292 61.9956 29.5794 61.3616 28.8911C60.7314 28.2033 60.2347 27.4044 59.8966 26.5351C59.5436 25.6301 59.3658 24.6664 59.3726 23.6951C59.3726 22.7091 59.5466 21.7671 59.8966 20.8711C60.2327 19.996 60.7299 19.1918 61.3626 18.5001C61.9966 17.8116 62.766 17.2615 63.6226 16.8841C64.4996 16.4911 65.4666 16.2941 66.5246 16.2941C67.3426 16.2941 68.1546 16.4961 68.9636 16.8991ZM69.6966 26.8371C70.0636 26.4211 70.3476 25.9391 70.5346 25.4171C70.7346 24.8651 70.8366 24.2831 70.8346 23.6961C70.8346 23.0911 70.7346 22.5161 70.5346 21.9741C70.3478 21.4519 70.0634 20.97 69.6966 20.5541C69.3321 20.1474 68.8892 19.8185 68.3946 19.5871C67.8655 19.3413 67.2879 19.2176 66.7046 19.2251C66.0846 19.2251 65.5266 19.3451 65.0276 19.5871C64.5393 19.8214 64.1022 20.1501 63.7416 20.5541C63.3816 20.9571 63.1076 21.4301 62.9186 21.9741C62.7272 22.5279 62.6312 23.1101 62.6346 23.6961C62.6346 24.3001 62.7286 24.8741 62.9186 25.4161C63.0961 25.9392 63.3759 26.4219 63.7416 26.8361C64.1016 27.2401 64.5296 27.5621 65.0276 27.8041C65.5516 28.0511 66.1246 28.1741 66.7036 28.1661C67.3216 28.1661 67.8856 28.0461 68.3946 27.8041C68.8896 27.5731 69.3326 27.2441 69.6966 26.8371ZM97.3456 18.5601C96.9056 17.8551 96.2826 17.3021 95.4756 16.8991C94.6676 16.4961 93.8556 16.2951 93.0356 16.2951C91.9786 16.2951 91.0116 16.4911 90.1336 16.8841C89.277 17.2615 88.5076 17.8116 87.8736 18.5001C87.2413 19.1915 86.7444 19.9954 86.4086 20.8701C86.0586 21.7711 85.8806 22.7301 85.8846 23.6961C85.8846 24.7031 86.0586 25.6491 86.4086 26.5361C86.7466 27.4051 87.2446 28.2041 87.8746 28.8911C88.5085 29.5797 89.2779 30.1299 90.1346 30.5071C91.0116 30.9001 91.9786 31.0971 93.0366 31.0971C93.8546 31.0971 94.6666 30.8951 95.4756 30.4921C96.2836 30.0901 96.9056 29.5361 97.3456 28.8321V30.7341H100.607V16.6571H97.3456V18.5601ZM97.0456 25.4171C96.8589 25.9393 96.5745 26.4212 96.2076 26.8371C95.8436 27.2439 95.4011 27.5729 94.9066 27.8041C94.3775 28.0499 93.7999 28.1737 93.2166 28.1661C92.5976 28.1661 92.0386 28.0461 91.5396 27.8041C91.0464 27.5673 90.6056 27.2341 90.2434 26.8241C89.8812 26.4141 89.6048 25.9357 89.4306 25.4171C89.239 24.8636 89.1426 24.2817 89.1456 23.6961C89.1456 23.0911 89.2406 22.5161 89.4306 21.9741C89.6076 21.4506 89.8874 20.9679 90.2536 20.5541C90.6136 20.1501 91.0516 19.8211 91.5396 19.5871C92.0633 19.3401 92.6366 19.2163 93.2156 19.2251C93.8336 19.2251 94.3976 19.3451 94.9056 19.5871C95.4156 19.8291 95.8486 20.1521 96.2076 20.5541C96.5676 20.9571 96.8466 21.4301 97.0466 21.9741C97.2446 22.5171 97.3456 23.0911 97.3456 23.6961C97.3456 24.3001 97.2456 24.8751 97.0456 25.4171Z" fill="#334155"/>
<path d="M76.6686 30.7341H79.9306V19.8971H85.5266V16.6571H76.6676L76.6686 30.7341ZM109.585 27.4371L113.684 16.6571H116.988L111.634 30.7341H107.535L102.182 16.6571H105.485L109.585 27.4371Z" fill="#334155"/>
<path fill-rule="evenodd" clip-rule="evenodd" d="M124.102 16.2941C120.108 16.2941 116.946 19.6091 116.946 23.6941C116.946 28.2141 120.006 31.0961 124.52 31.0961C127.046 31.0961 128.659 30.1211 130.629 27.9981L128.426 26.2771C128.424 26.2771 126.762 28.4811 124.281 28.4811C121.397 28.4811 120.182 26.1331 120.182 24.9191H131.003C131.571 20.2691 128.543 16.2941 124.102 16.2941ZM120.191 22.4721C120.216 22.2021 120.592 18.9101 124.076 18.9101C127.56 18.9101 127.983 22.2001 128.007 22.4721H120.191Z" fill="#334155"/>
</svg>
