<svg width="148" height="26" viewBox="0 0 148 26" fill="none" xmlns="http://www.w3.org/2000/svg">
<path fill-rule="evenodd" clip-rule="evenodd" d="M29.6646 22.0511C29.6646 24.4941 28.8146 25.4931 26.4996 25.4931H5.95758C3.64158 25.4931 2.79258 24.4931 2.79258 22.0511V17.2941C2.79258 15.0001 1.68758 13.7041 0.62558 13.1101C0.552518 13.0658 0.492108 13.0034 0.450182 12.929C0.408256 12.8545 0.38623 12.7705 0.38623 12.6851C0.38623 12.5996 0.408256 12.5157 0.450182 12.4412C0.492108 12.3668 0.552518 12.3044 0.62558 12.2601C1.73058 11.5591 2.79258 10.0931 2.79258 8.13909V3.46409C2.79258 0.830087 3.51458 0.0640869 5.82958 0.0640869H26.6276C28.9436 0.0640869 29.6656 0.830087 29.6656 3.46409V8.13709C29.6656 10.0911 30.7276 11.5571 31.8316 12.2571C32.1516 12.4701 32.1516 12.9171 31.8316 13.1071C30.7696 13.7231 29.6656 15.0191 29.6656 17.2921V22.0501L29.6646 22.0511ZM10.2066 18.9291C11.8846 20.3941 13.6906 21.1381 16.1766 21.1381C20.0846 21.1381 22.6336 19.1841 22.6336 16.0181C22.6336 12.6661 19.5976 11.8111 17.1286 11.1161C15.4356 10.6391 14.0086 10.2361 14.0086 9.15609C14.0086 8.45609 14.7526 7.77609 16.0056 7.77609C17.2156 7.77609 18.2156 8.03209 19.1706 8.52009C19.4896 8.66909 19.7866 8.77509 20.0626 8.77509C20.4666 8.77509 20.7856 8.58409 21.0616 8.20209L21.4436 7.62809C21.5926 7.41609 21.6566 7.18209 21.6566 6.92809C21.6566 6.50209 21.4436 6.07809 21.1256 5.86509C19.8506 5.05809 18.1296 4.37809 15.7936 4.37809C12.4796 4.37809 9.93058 6.12009 9.93058 9.24209C9.93058 12.7321 13.0326 13.6191 15.5166 14.3271C17.1736 14.8001 18.5546 15.1941 18.5546 16.2311C18.5546 17.2291 17.6206 17.7181 16.4516 17.7181C15.0479 17.7314 13.6723 17.3247 12.5016 16.5501C12.1396 16.3161 11.7996 16.1671 11.4386 16.1671C11.1186 16.1671 10.8436 16.3161 10.5886 16.6351L10.0786 17.2931C9.88858 17.5061 9.82458 17.7821 9.82458 18.0371C9.82458 18.3551 9.93058 18.6741 10.2066 18.9291ZM41.9426 16.9741C41.6666 16.9741 41.4326 17.0811 41.2206 17.3571L40.7956 17.9521C40.6256 18.1421 40.5826 18.3761 40.5826 18.5891C40.5826 18.8651 40.6886 19.1411 40.9226 19.3541C42.3246 20.5641 43.8546 21.2021 45.9576 21.2021C49.2496 21.2021 51.4166 19.5451 51.4166 16.8891C51.4166 14.0651 48.8486 13.3441 46.7626 12.7581C45.3326 12.3561 44.1306 12.0181 44.1306 11.1121C44.1306 10.4961 44.7676 9.94209 45.8086 9.94209C46.732 9.93919 47.6426 10.1583 48.4636 10.5811L48.5276 10.6051C48.7796 10.7031 49.0126 10.7931 49.2276 10.7931C49.5476 10.7931 49.8236 10.6431 50.0576 10.3031L50.3976 9.81609C50.5123 9.63139 50.5714 9.4175 50.5676 9.20009C50.5676 8.83909 50.3976 8.47809 50.1206 8.30809C49.0376 7.58509 47.5926 7.03309 45.6176 7.03309C42.8346 7.03309 40.6676 8.52009 40.6676 11.1531C40.6676 14.0811 43.2826 14.8281 45.3796 15.4261C46.7826 15.8261 47.9536 16.1611 47.9536 17.0381C47.9536 17.9081 47.1676 18.3131 46.1696 18.3131C44.8736 18.3131 43.7896 17.9521 42.8346 17.3131C42.5586 17.1021 42.2186 16.9741 41.9426 16.9741ZM62.2286 19.2691C62.2317 19.0878 62.1794 18.9098 62.0786 18.7591L61.8036 18.3131C61.5486 17.8671 61.2516 17.6971 60.8686 17.6971C60.6786 17.6971 60.4656 17.7391 60.1886 17.8451C59.9136 17.9521 59.5946 17.9941 59.2336 17.9941C58.1076 17.9941 57.6186 17.0171 57.6186 15.5511V10.6241H60.8686C61.4846 10.6241 61.9946 10.1141 61.9946 9.49809V8.47809C61.9946 7.86309 61.4846 7.35309 60.8686 7.35309H57.6186V4.71909C57.6186 4.10309 57.1086 3.59309 56.4936 3.59309H55.2826C54.6666 3.59309 54.1566 4.10309 54.1566 4.71909V15.6791C54.1566 19.1421 55.3036 21.1181 58.3416 21.1181C59.6796 21.1181 60.6996 20.8421 61.7186 20.2251C62.0586 20.0551 62.2286 19.6511 62.2286 19.2691ZM69.1106 12.5141C66.3706 12.5141 64.1826 13.9161 64.1826 16.8891C64.1826 19.5021 65.9456 21.0321 68.3466 21.0531C70.1726 21.0531 71.6166 20.3521 72.3396 19.3331V19.7781C72.3396 20.3941 72.8496 20.9041 73.4656 20.9041H74.2516C74.8676 20.9041 75.3776 20.3941 75.3776 19.7781V12.6841C75.3776 9.11609 73.9966 7.07709 70.0036 7.07709C68.6226 7.07709 67.2836 7.43709 66.1156 7.96909C65.7556 8.13909 65.4786 8.54209 65.4786 8.92509C65.4837 9.04748 65.5115 9.16786 65.5606 9.28009C65.5766 9.32509 65.5936 9.37009 65.6056 9.41309L65.7756 9.77309C65.9886 10.1991 66.3496 10.4121 66.7956 10.4121C66.9296 10.4121 67.0756 10.3721 67.2156 10.3341L67.3256 10.3041C67.9636 10.0931 68.6226 9.94409 69.6416 9.94409C71.5116 9.94409 72.1486 11.0061 72.1486 12.9821V13.3861C71.4886 12.8961 70.3006 12.5151 69.1106 12.5151V12.5141ZM69.7906 14.8291C70.7676 14.8291 71.5326 15.0411 72.1486 15.4881H72.1686V16.8881C71.7446 17.4631 71.0016 18.1001 69.5566 18.1001C68.4526 18.1001 67.6236 17.5271 67.6236 16.5071C67.6236 15.3601 68.6436 14.8291 69.7906 14.8291ZM86.6996 19.2691C86.7027 19.0878 86.6504 18.9098 86.5496 18.7591L86.2746 18.3131C86.0196 17.8671 85.7226 17.6971 85.3396 17.6971C85.1496 17.6971 84.9366 17.7391 84.6596 17.8451C84.3836 17.9521 84.0656 17.9941 83.7046 17.9941C82.5786 17.9941 82.0896 17.0171 82.0896 15.5511V10.6241H85.3396C85.9556 10.6241 86.4656 10.1141 86.4656 9.49809V8.47809C86.4656 7.86309 85.9556 7.35309 85.3396 7.35309H82.0896V4.71909C82.0896 4.10309 81.5796 3.59309 80.9636 3.59309H79.7536C79.1376 3.59309 78.6276 4.10309 78.6276 4.71909V15.6791C78.6276 19.1421 79.7746 21.1181 82.8116 21.1181C84.1506 21.1181 85.1696 20.8421 86.1896 20.2251C86.5296 20.0551 86.6996 19.6511 86.6996 19.2691ZM93.5816 12.5141C90.8416 12.5141 88.6536 13.9161 88.6536 16.8891C88.6536 19.5021 90.4376 21.0321 92.8166 21.0531C94.6436 21.0531 96.0886 20.3521 96.8106 19.3331V19.7781C96.8106 20.3941 97.3206 20.9041 97.9366 20.9041H98.7226C99.3386 20.9041 99.8486 20.3941 99.8486 19.7781V12.6841C99.8486 9.11609 98.4676 7.07709 94.4736 7.07709C93.0936 7.07709 91.7536 7.43709 90.5866 7.96909C90.2256 8.13909 89.9496 8.54209 89.9496 8.92509C89.9547 9.04748 89.9825 9.16786 90.0316 9.28009C90.0476 9.32509 90.0646 9.37009 90.0766 9.41309L90.2466 9.77309C90.4596 10.1991 90.8206 10.4121 91.2666 10.4121C91.4006 10.4121 91.5466 10.3721 91.6866 10.3341L91.7966 10.3041C92.4346 10.0931 93.0936 9.94409 94.1126 9.94409C95.9826 9.94409 96.6196 11.0061 96.6196 12.9821V13.3861C95.9596 12.8961 94.7716 12.5151 93.5816 12.5151V12.5141ZM94.2616 14.8291C95.2386 14.8291 96.0036 15.0411 96.6196 15.4881H96.6396V16.8881C96.2156 17.4631 95.4726 18.1001 94.0276 18.1001C92.9236 18.1001 92.0946 17.5271 92.0946 16.5071C92.0946 15.3601 93.1146 14.8291 94.2616 14.8291ZM111.064 7.11909C109.407 7.11909 107.814 7.77709 106.858 8.83909H106.795V8.45609C106.795 7.84009 106.285 7.33009 105.669 7.33009H104.458C103.842 7.33009 103.332 7.84009 103.332 8.45609V19.7361C103.332 20.3521 103.842 20.8621 104.458 20.8621H105.669C106.285 20.8621 106.795 20.3521 106.795 19.7361V11.7911C107.411 10.8781 108.409 10.3471 109.62 10.3471C111.064 10.3471 111.85 11.2601 111.85 12.6841V19.6941C111.85 20.3091 112.36 20.8191 112.976 20.8191H114.187C114.803 20.8191 115.313 20.3091 115.313 19.6931V12.8741C115.313 12.6981 115.306 12.4781 115.301 12.2801C115.296 12.1181 115.291 11.9701 115.291 11.8751C115.759 10.9621 116.778 10.3251 118.074 10.3251C119.71 10.3251 120.39 11.2381 120.39 12.9151V19.7351C120.39 20.3511 120.899 20.8611 121.515 20.8611H122.726C123.342 20.8611 123.852 20.3511 123.852 19.7351V12.0451C123.852 8.32809 122.004 7.11709 119.54 7.11709C117.458 7.11709 115.95 8.00909 114.994 9.28409C114.506 8.05209 113.125 7.11709 111.064 7.11709V7.11909ZM129.672 4.65409C130.649 4.65409 131.648 3.86809 131.648 2.48709C131.648 1.27709 130.649 0.491087 129.672 0.491087C128.504 0.491087 127.506 1.27709 127.506 2.48709C127.506 3.86709 128.504 4.65409 129.672 4.65409ZM131.329 8.47809C131.329 7.86209 130.819 7.35209 130.203 7.35209V7.33009H128.993C128.377 7.33009 127.867 7.84009 127.867 8.45609V19.7361C127.867 20.3521 128.377 20.8621 128.993 20.8621H130.203C130.819 20.8621 131.329 20.3521 131.329 19.7361V8.47809ZM142.269 10.2621C143.14 10.2621 143.841 10.4111 144.648 10.7921C144.791 10.8721 144.946 10.9041 145.086 10.9321L145.221 10.9621C145.625 10.9621 146.007 10.7081 146.241 10.3261L146.687 9.54009C146.793 9.39009 146.815 9.22009 146.815 9.05009C146.815 8.66909 146.623 8.22309 146.284 8.05309C144.967 7.33009 143.65 7.03309 141.844 7.03309C137.723 7.03309 134.855 10.1771 134.855 14.1071C134.855 18.3551 137.808 21.1801 142.269 21.1801C143.947 21.1801 145.37 20.8831 146.985 19.5871C147.239 19.3961 147.388 18.9921 147.388 18.6311C147.388 18.3981 147.324 18.1641 147.176 18.0151L146.666 17.3781C146.553 17.2387 146.41 17.1263 146.249 17.0491C146.087 16.9719 145.91 16.9319 145.731 16.9321C145.498 16.9321 145.243 17.0171 145.009 17.1661C144.223 17.6761 143.458 17.9521 142.396 17.9521C140.357 17.9521 138.509 16.4651 138.509 14.0861C138.509 11.7281 140.336 10.2621 142.269 10.2621Z" fill="#334155"/>
</svg>
